STARTFONT 2.1
FONT -thai-dbthaitext-medium-i-normal--33-240-100-100-p-100-tis620-0
SIZE 24 100 100
FONTBOUNDINGBOX 45 38 -12 -14
STARTPROPERTIES 25
FOUNDRY "thai"
FAMILY_NAME "dbthaitext"
WEIGHT_NAME "medium"
SLANT "i"
SETWIDTH_NAME "normal"
ADD_STYLE_NAME ""
PIXEL_SIZE 33
POINT_SIZE 240
RESOLUTION_X 100
RESOLUTION_Y 100
SPACING "p"
AVERAGE_WIDTH 100
CHARSET_REGISTRY "tis620"
CHARSET_ENCODING "0"
FONT "-thai-dbthaitext-medium-i-normal--33-240-100-100-p-100-tis620-0"
COPYRIGHT "Typeface (c) The Monotype Corporation plc. Data (c) The Monotype Corporation plc/Type Solutions Inc. 1990-1992. All Rights Reserved"
RAW_PIXELSIZE 1000
RAW_POINTSIZE 723
RAW_ASCENT 736
RAW_DESCENT 415
RAW_AVERAGE_WIDTH 2994
FACE_NAME "DBThaiTextItalic5"
DEFAULT_CHAR 0
FONT_ASCENT 24
FONT_DESCENT 14
ENDPROPERTIES
CHARS 190
STARTCHAR space
ENCODING 32
SWIDTH 240 0
DWIDTH 8 0
BBX 0 0 0 0
BITMAP
ENDCHAR
STARTCHAR exclam
ENCODING 33
SWIDTH 180 0
DWIDTH 6 0
BBX 6 15 0 0
BITMAP
0c
0c
08
18
18
10
10
30
20
20
20
20
00
c0
c0
ENDCHAR
STARTCHAR quotedbl
ENCODING 34
SWIDTH 210 0
DWIDTH 7 0
BBX 6 5 1 9
BITMAP
6c
48
d8
98
90
ENDCHAR
STARTCHAR numbersign
ENCODING 35
SWIDTH 330 0
DWIDTH 11 0
BBX 14 14 -1 0
BITMAP
0198
0110
0330
022c
1ff0
2cc0
08c0
0880
19a0
ffc0
b300
6600
6600
cc00
ENDCHAR
STARTCHAR dollar
ENCODING 36
SWIDTH 330 0
DWIDTH 11 0
BBX 12 17 -1 -2
BITMAP
0080
07e0
0db0
1930
1130
3300
3a00
1f00
07c0
04c0
04c0
ccc0
c880
cb80
7e00
1000
1000
ENDCHAR
STARTCHAR percent
ENCODING 37
SWIDTH 540 0
DWIDTH 18 0
BBX 15 14 1 0
BITMAP
0c04
3e08
6310
c230
c660
ccc0
7980
0300
023e
04e6
08c6
1086
20cc
60f8
ENDCHAR
STARTCHAR ampersand
ENCODING 38
SWIDTH 390 0
DWIDTH 13 0
BBX 12 14 0 0
BITMAP
03e0
0760
0660
0c60
0cc0
0780
0e00
3b30
7360
61e0
c1c0
c1c0
ffc0
7ee0
ENDCHAR
STARTCHAR apostrophe
ENCODING 39
SWIDTH 120 0
DWIDTH 4 0
BBX 3 5 1 9
BITMAP
60
40
c0
80
80
ENDCHAR
STARTCHAR parenleft
ENCODING 40
SWIDTH 210 0
DWIDTH 7 0
BBX 8 19 1 -4
BITMAP
03
02
04
08
18
10
30
20
60
40
40
c0
c0
c0
80
80
80
c0
40
ENDCHAR
STARTCHAR parenright
ENCODING 41
SWIDTH 210 0
DWIDTH 7 0
BBX 8 19 -2 -4
BITMAP
02
03
03
01
01
01
03
03
03
02
06
06
04
0c
08
10
30
20
40
ENDCHAR
STARTCHAR asterisk
ENCODING 42
SWIDTH 240 0
DWIDTH 8 0
BBX 6 7 1 9
BITMAP
10
10
10
fc
30
50
90
ENDCHAR
STARTCHAR plus
ENCODING 43
SWIDTH 360 0
DWIDTH 12 0
BBX 11 9 0 0
BITMAP
0300
0300
0600
0600
ffe0
0c00
0c00
1800
1800
ENDCHAR
STARTCHAR comma
ENCODING 44
SWIDTH 180 0
DWIDTH 6 0
BBX 4 5 1 -2
BITMAP
20
70
70
20
40
ENDCHAR
STARTCHAR minus
ENCODING 45
SWIDTH 210 0
DWIDTH 7 0
BBX 5 1 1 5
BITMAP
f8
ENDCHAR
STARTCHAR period
ENCODING 46
SWIDTH 180 0
DWIDTH 6 0
BBX 3 3 1 0
BITMAP
60
e0
c0
ENDCHAR
STARTCHAR slash
ENCODING 47
SWIDTH 180 0
DWIDTH 6 0
BBX 11 14 -3 0
BITMAP
0060
0040
0080
0180
0100
0200
0400
0400
0800
1000
1000
2000
4000
4000
ENDCHAR
STARTCHAR 0
ENCODING 48
SWIDTH 270 0
DWIDTH 9 0
BBX 9 12 0 0
BITMAP
0700
1f80
3080
2080
6180
4180
4100
c100
8200
8200
cc00
7800
ENDCHAR
STARTCHAR 1
ENCODING 49
SWIDTH 270 0
DWIDTH 9 0
BBX 5 12 3 0
BITMAP
08
18
f0
f0
30
20
20
60
40
40
c0
c0
ENDCHAR
STARTCHAR 2
ENCODING 50
SWIDTH 270 0
DWIDTH 9 0
BBX 11 12 -1 0
BITMAP
03c0
0ee0
0860
1860
0040
00c0
0300
0c00
3000
6000
4000
ff00
ENDCHAR
STARTCHAR 3
ENCODING 51
SWIDTH 270 0
DWIDTH 9 0
BBX 11 12 -1 0
BITMAP
07c0
1ee0
18e0
30e0
01c0
0f80
0f80
01c0
0180
e380
e700
7e00
ENDCHAR
STARTCHAR 4
ENCODING 52
SWIDTH 270 0
DWIDTH 9 0
BBX 11 12 -1 0
BITMAP
0060
00e0
01c0
02c0
0cc0
1880
3080
4180
ffc0
0300
0700
0e00
ENDCHAR
STARTCHAR 5
ENCODING 53
SWIDTH 270 0
DWIDTH 9 0
BBX 11 12 -1 0
BITMAP
0fe0
0800
1800
1000
3f00
3380
6180
0180
0180
c300
e700
7c00
ENDCHAR
STARTCHAR 6
ENCODING 54
SWIDTH 270 0
DWIDTH 9 0
BBX 11 12 -1 0
BITMAP
07c0
0ee0
1ce0
3800
7000
7f80
79c0
e1c0
e380
e380
e300
7e00
ENDCHAR
STARTCHAR 7
ENCODING 55
SWIDTH 270 0
DWIDTH 9 0
BBX 11 12 0 0
BITMAP
3fe0
00c0
0180
0300
0600
0600
0c00
1800
3000
6000
4000
c000
ENDCHAR
STARTCHAR 8
ENCODING 56
SWIDTH 270 0
DWIDTH 9 0
BBX 11 12 -1 0
BITMAP
07c0
1ee0
18e0
38e0
39c0
1f80
3b80
71c0
e180
e380
e700
7e00
ENDCHAR
STARTCHAR 9
ENCODING 57
SWIDTH 270 0
DWIDTH 9 0
BBX 11 12 -1 0
BITMAP
07c0
1ee0
38e0
38e0
38e0
71e0
37c0
3fc0
0380
e380
e700
fe00
ENDCHAR
STARTCHAR colon
ENCODING 58
SWIDTH 180 0
DWIDTH 6 0
BBX 6 11 0 0
BITMAP
1c
1c
00
00
00
00
00
00
60
e0
c0
ENDCHAR
STARTCHAR semicolon
ENCODING 59
SWIDTH 180 0
DWIDTH 6 0
BBX 6 13 -1 -2
BITMAP
0c
1c
08
00
00
00
00
00
20
70
60
20
40
ENDCHAR
STARTCHAR less
ENCODING 60
SWIDTH 360 0
DWIDTH 12 0
BBX 11 9 1 0
BITMAP
0060
03c0
1e00
7000
c000
7000
1c00
0700
0100
ENDCHAR
STARTCHAR equal
ENCODING 61
SWIDTH 360 0
DWIDTH 12 0
BBX 11 5 0 2
BITMAP
7fe0
0000
0000
0000
ffc0
ENDCHAR
STARTCHAR greater
ENCODING 62
SWIDTH 360 0
DWIDTH 12 0
BBX 11 9 0 0
BITMAP
1800
1e00
0780
00e0
0060
0380
0e00
7000
8000
ENDCHAR
STARTCHAR question
ENCODING 63
SWIDTH 330 0
DWIDTH 11 0
BBX 9 16 2 0
BITMAP
0e00
3f00
3f80
6180
4180
c180
0300
0600
0c00
1800
3000
6000
0000
0000
c000
c000
ENDCHAR
STARTCHAR at
ENCODING 64
SWIDTH 600 0
DWIDTH 20 0
BBX 20 19 0 -3
BITMAP
001e00
003f00
00ffc0
03c1e0
070070
0c0030
187f30
31cf30
238630
630c60
660c60
c618c0
c63180
c7ff00
c39c00
e00000
700000
3c3000
0fe000
ENDCHAR
STARTCHAR A
ENCODING 65
SWIDTH 390 0
DWIDTH 13 0
BBX 13 15 -2 0
BITMAP
0038
0078
0078
00d8
0198
0398
0318
0618
0c38
0ff8
1818
3018
2018
6018
c018
ENDCHAR
STARTCHAR B
ENCODING 66
SWIDTH 390 0
DWIDTH 13 0
BBX 14 16 -1 -1
BITMAP
07f8
0c3c
0c1c
080c
180c
1818
1830
3fe0
3030
3030
2030
6030
6060
60c0
ff80
c000
ENDCHAR
STARTCHAR C
ENCODING 67
SWIDTH 420 0
DWIDTH 14 0
BBX 14 16 0 0
BITMAP
01f0
03f8
07f8
0e1c
180c
300c
3000
6000
6000
e000
c000
c030
c070
e0e0
61c0
7f00
ENDCHAR
STARTCHAR D
ENCODING 68
SWIDTH 420 0
DWIDTH 14 0
BBX 14 16 0 -1
BITMAP
07f0
0818
080c
080c
1804
1004
100c
3008
3008
3018
2010
6020
6060
6180
ff00
c000
ENDCHAR
STARTCHAR E
ENCODING 69
SWIDTH 390 0
DWIDTH 13 0
BBX 15 16 -1 0
BITMAP
0006
07fe
0c00
0c00
0c00
1800
1800
1818
3ff0
3000
3000
6000
6000
6000
e060
ffe0
ENDCHAR
STARTCHAR F
ENCODING 70
SWIDTH 360 0
DWIDTH 12 0
BBX 14 16 0 0
BITMAP
000c
07fc
0800
0800
0800
1800
1800
1860
3fe0
2000
2000
6000
6000
4000
c000
c000
ENDCHAR
STARTCHAR G
ENCODING 71
SWIDTH 480 0
DWIDTH 16 0
BBX 15 17 0 -1
BITMAP
01f8
079c
0f1c
0e0e
1c06
3806
3000
6000
6004
e0fc
c00c
c018
c038
e078
70d0
3fb0
0020
ENDCHAR
STARTCHAR H
ENCODING 72
SWIDTH 420 0
DWIDTH 14 0
BBX 16 15 -1 0
BITMAP
0603
0c03
0c06
0c06
1806
180c
180c
3ffc
3018
3018
6018
6030
6030
c030
c020
ENDCHAR
STARTCHAR I
ENCODING 73
SWIDTH 180 0
DWIDTH 6 0
BBX 7 15 -1 0
BITMAP
06
06
0c
0c
0c
18
18
10
30
30
20
60
60
40
c0
ENDCHAR
STARTCHAR J
ENCODING 74
SWIDTH 300 0
DWIDTH 10 0
BBX 12 15 -1 0
BITMAP
0030
0030
0060
0060
0060
00c0
00c0
00c0
0080
0180
4180
c100
c300
c600
fc00
ENDCHAR
STARTCHAR K
ENCODING 75
SWIDTH 390 0
DWIDTH 13 0
BBX 16 15 -1 0
BITMAP
0407
0c0c
0c18
0870
18e0
1980
1b00
3f00
3980
3180
60c0
60c0
60c0
c060
c060
ENDCHAR
STARTCHAR L
ENCODING 76
SWIDTH 330 0
DWIDTH 11 0
BBX 11 16 -1 -1
BITMAP
0700
0f00
0e00
0e00
1c00
1c00
1800
3800
3800
3000
3000
6000
6000
6060
ffe0
e000
ENDCHAR
STARTCHAR M
ENCODING 77
SWIDTH 510 0
DWIDTH 17 0
BBX 18 15 -1 0
BITMAP
0601c0
0e03c0
0e0380
0e0780
1e0580
1e0f00
161b00
321300
323200
322600
626600
62c400
638c00
c38c00
c30800
ENDCHAR
STARTCHAR N
ENCODING 78
SWIDTH 420 0
DWIDTH 14 0
BBX 16 15 -1 0
BITMAP
0603
0e03
0f06
0f06
1b06
1b0c
198c
318c
3188
31d8
60d8
60d0
60f0
c070
c060
ENDCHAR
STARTCHAR O
ENCODING 79
SWIDTH 480 0
DWIDTH 16 0
BBX 15 16 0 0
BITMAP
01f0
07bc
0f1c
0e0e
1806
3006
3006
6006
6006
c00c
c00c
c018
c018
e070
60e0
3f80
ENDCHAR
STARTCHAR P
ENCODING 80
SWIDTH 390 0
DWIDTH 13 0
BBX 14 15 0 0
BITMAP
07f8
0c1c
0c0c
080c
180c
1818
1818
3830
3fc0
3000
6000
6000
6000
c000
c000
ENDCHAR
STARTCHAR Q
ENCODING 81
SWIDTH 480 0
DWIDTH 16 0
BBX 15 17 0 -1
BITMAP
01f0
07bc
0f1c
0e0e
1806
3006
3006
6006
6006
c00c
c00c
c018
c0b8
e1f0
60e0
3ff0
0020
ENDCHAR
STARTCHAR R
ENCODING 82
SWIDTH 420 0
DWIDTH 14 0
BBX 15 15 -1 0
BITMAP
07fc
0c0e
0c06
0806
1806
180c
1818
3ff0
3030
3038
6030
6030
6030
c030
c070
ENDCHAR
STARTCHAR S
ENCODING 83
SWIDTH 390 0
DWIDTH 13 0
BBX 13 16 0 0
BITMAP
03e0
0670
0478
0c18
1818
1018
1000
1e00
0fc0
03e0
0060
c020
c060
c040
e180
7f00
ENDCHAR
STARTCHAR T
ENCODING 84
SWIDTH 360 0
DWIDTH 12 0
BBX 12 16 2 0
BITMAP
0030
fff0
8600
0c00
0c00
0c00
1800
1800
1800
1000
3000
3000
3000
6000
6000
6000
ENDCHAR
STARTCHAR U
ENCODING 85
SWIDTH 420 0
DWIDTH 14 0
BBX 15 15 0 0
BITMAP
1c06
1806
180c
380c
300c
3018
3018
6018
6030
6030
c030
c060
c0e0
e1c0
7f00
ENDCHAR
STARTCHAR V
ENCODING 86
SWIDTH 390 0
DWIDTH 13 0
BBX 12 15 3 0
BITMAP
c030
c060
c0e0
c0c0
c180
c180
c300
c600
c600
cc00
c800
d800
f000
e000
e000
ENDCHAR
STARTCHAR W
ENCODING 87
SWIDTH 570 0
DWIDTH 19 0
BBX 19 15 2 0
BITMAP
606060
60e0c0
60e0c0
61e180
636180
636300
466600
446600
cc6c00
c86c00
d85800
f05800
f07000
e06000
c06000
ENDCHAR
STARTCHAR X
ENCODING 88
SWIDTH 390 0
DWIDTH 13 0
BBX 17 15 -2 0
BITMAP
060380
030700
030e00
030c00
019800
01b000
01e000
01c000
01c000
07e000
0e6000
1c6000
387000
703000
e03000
ENDCHAR
STARTCHAR Y
ENCODING 89
SWIDTH 390 0
DWIDTH 13 0
BBX 13 15 3 0
BITMAP
c038
e070
6060
60c0
6180
3300
3600
3c00
3800
1800
3000
3000
3000
6000
6000
ENDCHAR
STARTCHAR Z
ENCODING 90
SWIDTH 360 0
DWIDTH 12 0
BBX 16 17 -2 -1
BITMAP
0003
07ff
0007
000e
001c
0038
0070
00e0
01c0
0380
0700
0e00
1c00
3000
6030
ffe0
e000
ENDCHAR
STARTCHAR bracketleft
ENCODING 91
SWIDTH 180 0
DWIDTH 6 0
BBX 11 19 -2 -4
BITMAP
01e0
0100
0300
0300
0200
0600
0400
0c00
0c00
0800
1800
1800
1000
3000
2000
6000
6000
4000
f000
ENDCHAR
STARTCHAR backslash
ENCODING 92
SWIDTH 180 0
DWIDTH 6 0
BBX 1 15 2 0
BITMAP
80
80
80
80
80
80
80
80
80
80
80
80
80
80
80
ENDCHAR
STARTCHAR bracketright
ENCODING 93
SWIDTH 180 0
DWIDTH 6 0
BBX 11 19 -3 -4
BITMAP
01e0
0040
00c0
00c0
0080
0180
0100
0300
0300
0200
0600
0600
0400
0c00
0800
1800
1800
1000
f000
ENDCHAR
STARTCHAR asciicircum
ENCODING 94
SWIDTH 270 0
DWIDTH 9 0
BBX 8 8 -1 6
BITMAP
02
07
0f
1b
13
23
63
c3
ENDCHAR
STARTCHAR underscore
ENCODING 95
SWIDTH 330 0
DWIDTH 11 0
BBX 12 1 0 -3
BITMAP
fff0
ENDCHAR
STARTCHAR grave
ENCODING 96
SWIDTH 180 0
DWIDTH 6 0
BBX 6 5 0 3
BITMAP
7c
7c
fc
f8
f0
ENDCHAR
STARTCHAR a
ENCODING 97
SWIDTH 330 0
DWIDTH 11 0
BBX 11 11 0 0
BITMAP
07c0
0fe0
1860
3060
00c0
1fc0
78c0
6080
c180
c780
fd80
ENDCHAR
STARTCHAR b
ENCODING 98
SWIDTH 330 0
DWIDTH 11 0
BBX 11 15 -1 0
BITMAP
0400
0c00
0800
0800
1bc0
1ce0
1860
3060
2060
2060
6040
60c0
6080
e300
be00
ENDCHAR
STARTCHAR c
ENCODING 99
SWIDTH 300 0
DWIDTH 10 0
BBX 11 11 0 0
BITMAP
07c0
0fe0
38e0
30e0
7000
6000
e000
e0c0
e180
e700
7e00
ENDCHAR
STARTCHAR d
ENCODING 100
SWIDTH 330 0
DWIDTH 11 0
BBX 13 16 -1 -1
BITMAP
0018
0018
0030
0030
07b0
1de0
38e0
70e0
60c0
60c0
c0c0
c180
c180
e780
7d00
0100
ENDCHAR
STARTCHAR e
ENCODING 101
SWIDTH 330 0
DWIDTH 11 0
BBX 11 11 0 0
BITMAP
07c0
0fc0
38e0
3060
60e0
7fc0
e000
c000
c180
e300
7e00
ENDCHAR
STARTCHAR f
ENCODING 102
SWIDTH 180 0
DWIDTH 6 0
BBX 8 16 -1 0
BITMAP
07
07
0f
0c
08
0b
3c
30
30
30
20
60
60
40
c0
c0
ENDCHAR
STARTCHAR g
ENCODING 103
SWIDTH 330 0
DWIDTH 11 0
BBX 13 16 -1 -4
BITMAP
0008
03d8
0ef0
0c70
1830
3830
3060
3060
7060
70c0
31c0
3ec0
0180
c180
e300
7c00
ENDCHAR
STARTCHAR h
ENCODING 104
SWIDTH 330 0
DWIDTH 11 0
BBX 11 15 -1 0
BITMAP
0400
0c00
0c00
0800
19c0
1fe0
1860
3060
3040
20c0
60c0
6080
4180
c180
c100
ENDCHAR
STARTCHAR i
ENCODING 105
SWIDTH 120 0
DWIDTH 4 0
BBX 6 15 -1 0
BITMAP
0c
08
00
00
00
10
30
30
30
20
60
60
40
c0
c0
ENDCHAR
STARTCHAR j
ENCODING 106
SWIDTH 120 0
DWIDTH 4 0
BBX 11 19 -4 -4
BITMAP
0060
0040
0000
0000
0000
0080
0180
0180
0300
0300
0700
0600
0e00
0e00
0c00
1c00
1c00
3800
f800
ENDCHAR
STARTCHAR k
ENCODING 107
SWIDTH 300 0
DWIDTH 10 0
BBX 12 15 -1 0
BITMAP
0600
0c00
0c00
0c00
1800
18e0
1180
3300
3e00
3b00
7300
6300
6300
c380
c180
ENDCHAR
STARTCHAR l
ENCODING 108
SWIDTH 120 0
DWIDTH 4 0
BBX 6 15 -1 0
BITMAP
0c
0c
08
18
18
10
30
30
30
20
60
60
40
c0
c0
ENDCHAR
STARTCHAR m
ENCODING 109
SWIDTH 510 0
DWIDTH 17 0
BBX 17 11 -1 0
BITMAP
1bcf00
1cfb80
1cf180
38e180
30c300
30c300
618300
618600
618600
c30e00
c30c00
ENDCHAR
STARTCHAR n
ENCODING 110
SWIDTH 330 0
DWIDTH 11 0
BBX 11 11 0 0
BITMAP
13c0
1fe0
1860
3060
3040
20c0
60c0
6080
4180
c180
c100
ENDCHAR
STARTCHAR o
ENCODING 111
SWIDTH 330 0
DWIDTH 11 0
BBX 11 11 0 0
BITMAP
07c0
1fe0
38e0
30e0
60e0
60e0
e0c0
e1c0
e180
e700
7e00
ENDCHAR
STARTCHAR p
ENCODING 112
SWIDTH 330 0
DWIDTH 11 0
BBX 13 15 -1 -4
BITMAP
04f0
0ff8
0e38
0c18
1818
1818
1830
3830
3860
3ce0
6f80
6000
6000
c000
c000
ENDCHAR
STARTCHAR q
ENCODING 113
SWIDTH 330 0
DWIDTH 11 0
BBX 11 15 1 -4
BITMAP
0720
1fa0
38c0
20c0
40c0
4080
c080
8180
c100
c700
7f00
0200
0200
0600
0400
ENDCHAR
STARTCHAR r
ENCODING 114
SWIDTH 210 0
DWIDTH 7 0
BBX 9 11 -1 0
BITMAP
1b80
1f80
1c00
3800
3000
3000
7000
6000
6000
c000
c000
ENDCHAR
STARTCHAR s
ENCODING 115
SWIDTH 300 0
DWIDTH 10 0
BBX 11 11 -1 0
BITMAP
07c0
1ce0
38e0
3800
3800
3f80
0fc0
01c0
e1c0
e380
ff00
ENDCHAR
STARTCHAR t
ENCODING 116
SWIDTH 180 0
DWIDTH 6 0
BBX 7 13 0 0
BITMAP
18
18
1a
7c
70
20
20
20
40
40
40
80
e0
ENDCHAR
STARTCHAR u
ENCODING 117
SWIDTH 330 0
DWIDTH 11 0
BBX 11 10 0 0
BITMAP
1060
3060
30c0
20c0
6080
4180
4180
c300
c700
ff00
ENDCHAR
STARTCHAR v
ENCODING 118
SWIDTH 300 0
DWIDTH 10 0
BBX 10 10 2 0
BITMAP
c0c0
c180
c300
c600
c600
cc00
d800
f000
e000
c000
ENDCHAR
STARTCHAR w
ENCODING 119
SWIDTH 420 0
DWIDTH 14 0
BBX 14 10 2 0
BITMAP
c30c
c718
c718
cb30
cb20
d360
f3c0
e380
e300
c300
ENDCHAR
STARTCHAR x
ENCODING 120
SWIDTH 300 0
DWIDTH 10 0
BBX 13 10 -2 0
BITMAP
0c38
0c70
06c0
0780
0700
0700
1b00
3380
6180
c180
ENDCHAR
STARTCHAR y
ENCODING 121
SWIDTH 300 0
DWIDTH 10 0
BBX 13 14 -1 -4
BITMAP
0c18
0c30
0c60
0c60
0cc0
0d80
0d80
0f00
0e00
0c00
0c00
1800
3000
e000
ENDCHAR
STARTCHAR z
ENCODING 122
SWIDTH 300 0
DWIDTH 10 0
BBX 12 11 -1 -1
BITMAP
0ff0
1860
00c0
0180
0300
0c00
1800
3000
6080
ff80
c000
ENDCHAR
STARTCHAR braceleft
ENCODING 123
SWIDTH 210 0
DWIDTH 7 0
BBX 9 20 0 -4
BITMAP
0180
0380
0780
0600
0c00
0c00
0c00
1800
1800
3000
6000
6000
3000
2000
6000
6000
6000
c000
c000
e000
ENDCHAR
STARTCHAR bar
ENCODING 124
SWIDTH 150 0
DWIDTH 5 0
BBX 7 19 -1 -4
BITMAP
02
06
04
04
0c
08
08
08
10
10
10
30
20
20
60
40
40
40
80
ENDCHAR
STARTCHAR braceright
ENCODING 125
SWIDTH 210 0
DWIDTH 7 0
BBX 9 20 -3 -4
BITMAP
0380
0380
0380
0180
0180
0300
0300
0300
0200
0300
0300
0700
0c00
0c00
1800
1800
1800
3000
3000
e000
ENDCHAR
STARTCHAR asciitilde
ENCODING 126
SWIDTH 360 0
DWIDTH 12 0
BBX 9 4 1 5
BITMAP
3000
7880
8f00
0200
ENDCHAR
STARTCHAR exclamdown
ENCODING 161
SWIDTH 360 0
DWIDTH 12 0
BBX 11 11 0 0
BITMAP
07c0
1860
1820
1020
2040
2040
6040
4080
4080
c180
c100
ENDCHAR
STARTCHAR cent
ENCODING 162
SWIDTH 360 0
DWIDTH 12 0
BBX 11 11 1 0
BITMAP
3c60
5e60
9640
f4c0
0cc0
1880
1980
1180
3100
2300
fe00
ENDCHAR
STARTCHAR sterling
ENCODING 163
SWIDTH 390 0
DWIDTH 13 0
BBX 12 11 1 0
BITMAP
1f10
6130
7320
9220
9460
6440
0440
0cc0
0880
0880
3f00
ENDCHAR
STARTCHAR currency
ENCODING 164
SWIDTH 360 0
DWIDTH 12 0
BBX 11 12 1 0
BITMAP
0fc0
18e0
30e0
6e60
db60
f2c0
fec0
60c0
6180
6180
c180
c300
ENDCHAR
STARTCHAR yen
ENCODING 165
SWIDTH 360 0
DWIDTH 12 0
BBX 11 11 1 0
BITMAP
0dc0
3260
6e60
db60
f2c0
fec0
60c0
6180
4180
c180
c300
ENDCHAR
STARTCHAR brokenbar
ENCODING 166
SWIDTH 450 0
DWIDTH 15 0
BBX 14 11 1 0
BITMAP
1f04
610c
7308
9208
9418
6410
1e10
29b0
48e0
4860
7060
ENDCHAR
STARTCHAR section
ENCODING 167
SWIDTH 300 0
DWIDTH 10 0
BBX 8 11 1 0
BITMAP
07
09
0b
8e
82
c6
44
44
6c
68
38
ENDCHAR
STARTCHAR diaeresis
ENCODING 168
SWIDTH 330 0
DWIDTH 11 0
BBX 9 11 2 0
BITMAP
1f00
e180
0180
3d80
6d00
4f00
7700
0600
0600
0600
0400
ENDCHAR
STARTCHAR copyright
ENCODING 169
SWIDTH 390 0
DWIDTH 13 0
BBX 11 11 1 0
BITMAP
0780
1860
0060
7040
9040
90c0
f1c0
26a0
39a0
6140
41c0
ENDCHAR
STARTCHAR ordfeminine
ENCODING 170
SWIDTH 360 0
DWIDTH 12 0
BBX 12 12 1 0
BITMAP
1010
7c60
d780
9780
e480
0880
1980
1100
1100
3300
2200
fe00
ENDCHAR
STARTCHAR guillemotleft
ENCODING 171
SWIDTH 390 0
DWIDTH 13 0
BBX 14 12 0 0
BITMAP
090c
3f98
41e0
7360
da20
9660
6460
0440
0cc0
08c0
0880
3f80
ENDCHAR
STARTCHAR notsign
ENCODING 172
SWIDTH 480 0
DWIDTH 16 0
BBX 15 11 1 0
BITMAP
0f82
3046
1844
2084
208c
6088
4108
7398
9770
9630
e630
ENDCHAR
STARTCHAR hyphen
ENCODING 173
SWIDTH 480 0
DWIDTH 16 0
BBX 15 17 2 -6
BITMAP
0f82
3046
1844
2084
208c
4088
4188
7110
9110
9310
e7e0
0000
0660
1a40
1240
0d80
0600
ENDCHAR
STARTCHAR registered
ENCODING 174
SWIDTH 390 0
DWIDTH 13 0
BBX 14 17 0 -6
BITMAP
00f8
030c
030c
020c
0408
0c08
0c18
3810
4810
d830
7020
0220
3e60
4e40
cf40
f9c0
6080
ENDCHAR
STARTCHAR macron
ENCODING 175
SWIDTH 390 0
DWIDTH 13 0
BBX 14 17 0 -6
BITMAP
00f8
030c
0304
020c
0408
0408
0c18
3810
4810
4830
7020
0620
0460
7940
9b40
fdc0
4480
ENDCHAR
STARTCHAR degree
ENCODING 176
SWIDTH 330 0
DWIDTH 11 0
BBX 15 17 -2 -6
BITMAP
01fc
030c
01f0
0030
0390
0490
04b0
07e0
00e0
0060
0040
0000
0980
0a80
7380
9580
ff00
ENDCHAR
STARTCHAR plusminus
ENCODING 177
SWIDTH 480 0
DWIDTH 16 0
BBX 14 11 1 0
BITMAP
1f1c
6124
7344
9288
9508
6608
0610
0c10
0810
0820
1820
ENDCHAR
STARTCHAR twosuperior
ENCODING 178
SWIDTH 510 0
DWIDTH 17 0
BBX 16 11 1 0
BITMAP
0dc1
3263
4462
4a46
d2c6
dec4
c88c
53cc
63a8
4538
c718
ENDCHAR
STARTCHAR threesuperior
ENCODING 179
SWIDTH 480 0
DWIDTH 16 0
BBX 15 11 1 0
BITMAP
0fc6
3046
1844
30c4
2088
6088
419c
7174
9194
9314
e338
ENDCHAR
STARTCHAR acute
ENCODING 180
SWIDTH 360 0
DWIDTH 12 0
BBX 11 12 1 0
BITMAP
07c0
1ce0
3060
6660
4f60
dbc0
dec0
ccc0
5980
7180
6180
c300
ENDCHAR
STARTCHAR mu
ENCODING 181
SWIDTH 360 0
DWIDTH 12 0
BBX 11 11 1 0
BITMAP
0de0
3260
6660
4f60
dbc0
dec0
ccc0
5980
7180
6180
c300
ENDCHAR
STARTCHAR paragraph
ENCODING 182
SWIDTH 360 0
DWIDTH 12 0
BBX 11 11 0 0
BITMAP
0fc0
3060
1860
1060
2040
60c0
60c0
7080
d980
9180
e100
ENDCHAR
STARTCHAR periodcentered
ENCODING 183
SWIDTH 360 0
DWIDTH 12 0
BBX 11 11 2 0
BITMAP
30e0
d120
f220
7440
2840
3040
7080
6080
4080
c100
c100
ENDCHAR
STARTCHAR cedilla
ENCODING 184
SWIDTH 330 0
DWIDTH 11 0
BBX 12 11 0 0
BITMAP
0fe0
1020
0f00
0180
1880
1880
1180
1180
3100
2300
fe00
ENDCHAR
STARTCHAR onesuperior
ENCODING 185
SWIDTH 390 0
DWIDTH 13 0
BBX 11 11 2 0
BITMAP
3860
d860
f040
70c0
30c0
2080
23c0
6d40
5140
6340
c380
ENDCHAR
STARTCHAR masculine
ENCODING 186
SWIDTH 390 0
DWIDTH 13 0
BBX 13 11 0 0
BITMAP
1c18
2418
2c10
3830
0830
1820
1060
1060
3040
20c0
ff80
ENDCHAR
STARTCHAR guillemotright
ENCODING 187
SWIDTH 390 0
DWIDTH 13 0
BBX 14 15 0 0
BITMAP
000c
0008
0008
0018
3c10
2410
2810
3820
1820
1020
1040
3040
3040
2080
ff80
ENDCHAR
STARTCHAR onequarter
ENCODING 188
SWIDTH 360 0
DWIDTH 12 0
BBX 13 11 0 0
BITMAP
0e18
1218
1e10
3830
3030
2220
6d60
7960
71c0
c0c0
c0c0
ENDCHAR
STARTCHAR onehalf
ENCODING 189
SWIDTH 360 0
DWIDTH 12 0
BBX 14 15 -1 0
BITMAP
000c
0008
0008
0018
0e10
1210
1e30
3820
3020
2260
6f40
7940
61c0
c080
c080
ENDCHAR
STARTCHAR threequarters
ENCODING 190
SWIDTH 420 0
DWIDTH 14 0
BBX 13 11 2 0
BITMAP
3118
d118
f390
7290
24b0
28a0
70a0
70e0
60c0
c0c0
80c0
ENDCHAR
STARTCHAR questiondown
ENCODING 191
SWIDTH 420 0
DWIDTH 14 0
BBX 14 15 1 0
BITMAP
000c
0008
0008
0018
7110
9110
f310
65a0
25a0
68a0
70a0
60c0
40c0
c080
8080
ENDCHAR
STARTCHAR Agrave
ENCODING 192
SWIDTH 390 0
DWIDTH 13 0
BBX 13 11 -1 0
BITMAP
01f0
0618
0608
0608
0810
0810
0810
7020
9020
9020
e040
ENDCHAR
STARTCHAR Aacute
ENCODING 193
SWIDTH 390 0
DWIDTH 13 0
BBX 13 11 0 0
BITMAP
0c18
3418
3c10
1c10
0830
0820
3c20
5360
91c0
b0c0
e0c0
ENDCHAR
STARTCHAR Acircumflex
ENCODING 194
SWIDTH 360 0
DWIDTH 12 0
BBX 12 11 0 0
BITMAP
0f30
1930
1e20
3060
3060
1840
30c0
60c0
4080
4180
ff00
ENDCHAR
STARTCHAR Atilde
ENCODING 195
SWIDTH 300 0
DWIDTH 10 0
BBX 11 11 1 0
BITMAP
3fc0
61c0
3f00
0700
0700
0700
0700
1e00
3e00
7e00
7c00
ENDCHAR
STARTCHAR Adiaeresis
ENCODING 196
SWIDTH 360 0
DWIDTH 12 0
BBX 11 17 1 -6
BITMAP
0fc0
3060
1860
1060
2040
60c0
40c0
7080
d980
9180
f100
0300
0300
0200
0600
0600
0400
ENDCHAR
STARTCHAR Aring
ENCODING 197
SWIDTH 360 0
DWIDTH 12 0
BBX 11 11 0 0
BITMAP
0fc0
3060
0060
1e60
37c0
63c0
63c0
f380
db80
db80
f300
ENDCHAR
STARTCHAR AE
ENCODING 198
SWIDTH 390 0
DWIDTH 13 0
BBX 13 17 0 -6
BITMAP
01f0
0618
0608
0408
0810
0810
0810
7020
9020
9020
e040
0040
0040
0080
0080
0080
0100
ENDCHAR
STARTCHAR Ccedilla
ENCODING 199
SWIDTH 330 0
DWIDTH 11 0
BBX 8 11 2 0
BITMAP
3e
c1
01
01
02
02
02
0c
34
24
38
ENDCHAR
STARTCHAR Egrave
ENCODING 200
SWIDTH 360 0
DWIDTH 12 0
BBX 12 12 1 0
BITMAP
0210
1fa0
20c0
4dc0
9240
a280
bc80
6080
4100
4100
c100
8200
ENDCHAR
STARTCHAR Eacute
ENCODING 201
SWIDTH 390 0
DWIDTH 13 0
BBX 14 11 0 0
BITMAP
1c18
2418
2c10
3bb4
1aa8
1bb0
13e0
1040
3040
20c0
ff80
ENDCHAR
STARTCHAR Ecircumflex
ENCODING 202
SWIDTH 360 0
DWIDTH 12 0
BBX 12 12 0 0
BITMAP
0030
0fa0
30c0
0140
1e40
26c0
6280
4280
f380
d380
9300
e300
ENDCHAR
STARTCHAR Ediaeresis
ENCODING 203
SWIDTH 390 0
DWIDTH 13 0
BBX 11 11 2 0
BITMAP
30e0
d120
f140
7180
2640
6840
7080
6080
4080
c100
8100
ENDCHAR
STARTCHAR Igrave
ENCODING 204
SWIDTH 420 0
DWIDTH 14 0
BBX 16 13 1 0
BITMAP
0039
002a
78ec
d898
f990
7290
36b0
2cb0
38e0
70e0
60e0
60c0
c0c0
ENDCHAR
STARTCHAR Iacute
ENCODING 205
SWIDTH 360 0
DWIDTH 12 0
BBX 11 11 0 0
BITMAP
07c0
3860
0060
1c60
2440
6cc0
78c0
4080
c180
c180
ff00
ENDCHAR
STARTCHAR Icircumflex
ENCODING 206
SWIDTH 360 0
DWIDTH 12 0
BBX 13 12 0 0
BITMAP
0008
0fd8
3060
1fe0
0060
3840
2cc0
48c0
7080
c180
c180
ff00
ENDCHAR
STARTCHAR Idiaeresis
ENCODING 207
SWIDTH 330 0
DWIDTH 11 0
BBX 9 11 2 0
BITMAP
3080
4900
d900
a300
8e00
7200
0200
0400
0400
0800
3000
ENDCHAR
STARTCHAR ETH
ENCODING 208
SWIDTH 270 0
DWIDTH 9 0
BBX 11 11 -1 0
BITMAP
0e60
36c0
1f80
0c00
0000
0000
0000
7900
db00
f600
7c00
ENDCHAR
STARTCHAR Ntilde
ENCODING 209
SWIDTH 0 0
DWIDTH 0 0
BBX 11 5 -7 13
BITMAP
7820
d860
d1c0
ff00
3800
ENDCHAR
STARTCHAR Ograve
ENCODING 210
SWIDTH 300 0
DWIDTH 10 0
BBX 8 11 1 0
BITMAP
3e
43
03
03
06
06
06
0c
0c
0c
18
ENDCHAR
STARTCHAR Oacute
ENCODING 211
SWIDTH 300 0
DWIDTH 10 0
BBX 11 17 -3 0
BITMAP
7800
d800
f000
4000
0000
0000
07c0
0860
0060
0060
00c0
00c0
00c0
0180
0180
0180
0300
ENDCHAR
STARTCHAR Ocircumflex
ENCODING 212
SWIDTH 0 0
DWIDTH 0 0
BBX 9 5 -11 13
BITMAP
0f00
3100
4080
ff80
0080
ENDCHAR
STARTCHAR Otilde
ENCODING 213
SWIDTH 30 0
DWIDTH 1 0
BBX 11 6 -11 13
BITMAP
0020
0f40
31c0
40c0
ffc0
0080
ENDCHAR
STARTCHAR Odiaeresis
ENCODING 214
SWIDTH 0 0
DWIDTH 0 0
BBX 11 6 -12 13
BITMAP
00e0
0f60
31c0
4080
ff80
0080
ENDCHAR
STARTCHAR multiply
ENCODING 215
SWIDTH 30 0
DWIDTH 1 0
BBX 11 6 -11 13
BITMAP
0160
0f40
31c0
40c0
ffc0
0080
ENDCHAR
STARTCHAR Ooblique
ENCODING 216
SWIDTH 0 0
DWIDTH 0 0
BBX 4 7 -5 -8
BITMAP
20
70
90
f0
20
20
60
ENDCHAR
STARTCHAR Ugrave
ENCODING 217
SWIDTH 0 0
DWIDTH 0 0
BBX 8 8 -9 -9
BITMAP
20
53
92
f2
36
24
3c
10
ENDCHAR
STARTCHAR Uacute
ENCODING 218
SWIDTH 0 0
DWIDTH 0 0
BBX 2 2 -3 -4
BITMAP
c0
c0
ENDCHAR
STARTCHAR Ucircumflex
ENCODING 219
SWIDTH 0 0
DWIDTH 0 0
BBX 2 2 -4 -8
BITMAP
40
c0
ENDCHAR
STARTCHAR Udiaeresis
ENCODING 220
SWIDTH 0 0
DWIDTH 0 0
BBX 1 1 0 0
BITMAP
00
ENDCHAR
STARTCHAR Yacute
ENCODING 221
SWIDTH 0 0
DWIDTH 0 0
BBX 1 1 0 0
BITMAP
00
ENDCHAR
STARTCHAR THORN
ENCODING 222
SWIDTH 0 0
DWIDTH 0 0
BBX 1 1 0 0
BITMAP
00
ENDCHAR
STARTCHAR ssharp
ENCODING 223
SWIDTH 0 0
DWIDTH 0 0
BBX 1 1 0 0
BITMAP
00
ENDCHAR
STARTCHAR agrave
ENCODING 224
SWIDTH 210 0
DWIDTH 7 0
BBX 5 11 0 0
BITMAP
18
18
10
30
20
20
40
70
d8
d0
f0
ENDCHAR
STARTCHAR aacute
ENCODING 225
SWIDTH 360 0
DWIDTH 12 0
BBX 11 11 0 0
BITMAP
1c60
1840
38c0
3080
3080
6100
6100
7bc0
fbe0
dec0
f3c0
ENDCHAR
STARTCHAR acircumflex
ENCODING 226
SWIDTH 210 0
DWIDTH 7 0
BBX 11 21 0 0
BITMAP
0200
1fe0
3c00
0e00
0600
0600
0c00
0c00
0800
1800
1800
1000
3000
3000
2000
6000
4000
7000
d800
d800
f000
ENDCHAR
STARTCHAR atilde
ENCODING 227
SWIDTH 210 0
DWIDTH 7 0
BBX 7 21 0 0
BITMAP
0c
36
36
4e
74
04
0c
08
08
18
10
10
30
20
20
60
40
70
d0
90
e0
ENDCHAR
STARTCHAR adiaeresis
ENCODING 228
SWIDTH 240 0
DWIDTH 8 0
BBX 7 21 1 0
BITMAP
44
4e
4a
54
54
64
48
08
08
18
10
10
30
20
20
60
40
70
90
90
e0
ENDCHAR
STARTCHAR aring
ENCODING 229
SWIDTH 300 0
DWIDTH 10 0
BBX 8 17 2 -6
BITMAP
3e
43
03
03
06
06
06
0c
0c
08
08
18
10
10
30
20
20
ENDCHAR
STARTCHAR ae
ENCODING 230
SWIDTH 390 0
DWIDTH 13 0
BBX 9 16 5 -5
BITMAP
3f00
6180
c180
f980
db00
f300
0300
0600
0600
0600
0c00
0c00
0c00
1800
7000
4000
ENDCHAR
STARTCHAR ccedilla
ENCODING 231
SWIDTH 0 0
DWIDTH 0 0
BBX 11 7 -11 13
BITMAP
0020
00c0
7f80
e000
ff80
ef80
8700
ENDCHAR
STARTCHAR egrave
ENCODING 232
SWIDTH 0 0
DWIDTH 0 0
BBX 2 3 -3 21
BITMAP
40
40
80
ENDCHAR
STARTCHAR eacute
ENCODING 233
SWIDTH 0 0
DWIDTH 0 0
BBX 8 4 -6 20
BITMAP
73
b2
e4
78
ENDCHAR
STARTCHAR ecircumflex
ENCODING 234
SWIDTH 0 0
DWIDTH 0 0
BBX 9 4 -8 20
BITMAP
7d80
e500
a700
ec00
ENDCHAR
STARTCHAR ediaeresis
ENCODING 235
SWIDTH 0 0
DWIDTH 0 0
BBX 6 4 -5 20
BITMAP
10
fc
20
20
ENDCHAR
STARTCHAR igrave
ENCODING 236
SWIDTH 0 0
DWIDTH 0 0
BBX 8 5 -6 19
BITMAP
02
3c
60
d0
f0
ENDCHAR
STARTCHAR iacute
ENCODING 237
SWIDTH 0 0
DWIDTH 0 0
BBX 4 4 -6 13
BITMAP
20
d0
90
e0
ENDCHAR
STARTCHAR icircumflex
ENCODING 238
SWIDTH 0 0
DWIDTH 0 0
BBX 4 4 -6 16
BITMAP
70
90
90
e0
ENDCHAR
STARTCHAR idiaeresis
ENCODING 239
SWIDTH 330 0
DWIDTH 11 0
BBX 12 11 0 0
BITMAP
07c0
1820
2330
4f90
5f90
9fb0
9fa0
9f60
c4c0
6180
3e00
ENDCHAR
STARTCHAR eth
ENCODING 240
SWIDTH 360 0
DWIDTH 12 0
BBX 11 8 0 0
BITMAP
0fc0
38e0
70e0
e0e0
e0e0
e1c0
e380
7e00
ENDCHAR
STARTCHAR ntilde
ENCODING 241
SWIDTH 360 0
DWIDTH 12 0
BBX 11 9 1 -1
BITMAP
0fc0
38e0
66e0
db60
dfe0
fec0
fdc0
1300
0200
ENDCHAR
STARTCHAR ograve
ENCODING 242
SWIDTH 420 0
DWIDTH 14 0
BBX 13 12 0 0
BITMAP
1000
3000
3000
3000
27f8
6cd8
7f18
7b10
de30
cc30
c060
7fc0
ENDCHAR
STARTCHAR oacute
ENCODING 243
SWIDTH 420 0
DWIDTH 14 0
BBX 12 8 1 0
BITMAP
1ef0
2310
4310
4210
f220
d620
9460
e4c0
ENDCHAR
STARTCHAR ocircumflex
ENCODING 244
SWIDTH 420 0
DWIDTH 14 0
BBX 16 13 0 0
BITMAP
0003
0002
0006
0004
0008
0ff0
3000
6700
c900
cb00
ce00
c3c0
7fc0
ENDCHAR
STARTCHAR otilde
ENCODING 245
SWIDTH 420 0
DWIDTH 14 0
BBX 16 13 0 0
BITMAP
0003
0002
01c6
0244
0298
1ff0
3000
6700
c900
cb00
ce00
c3c0
7fc0
ENDCHAR
STARTCHAR odiaeresis
ENCODING 246
SWIDTH 330 0
DWIDTH 11 0
BBX 9 13 0 0
BITMAP
2000
2000
2000
2000
2600
3f80
2180
0180
3180
5100
9300
ee00
7800
ENDCHAR
STARTCHAR division
ENCODING 247
SWIDTH 450 0
DWIDTH 15 0
BBX 16 12 0 0
BITMAP
0003
0006
0006
0004
1dcc
376c
6668
c058
f0d0
f9b0
d9e0
7380
ENDCHAR
STARTCHAR oslash
ENCODING 248
SWIDTH 420 0
DWIDTH 14 0
BBX 14 12 1 0
BITMAP
0004
0004
0008
0008
0f30
30c0
4000
41c0
91c0
a9c0
ec40
4780
ENDCHAR
STARTCHAR ugrave
ENCODING 249
SWIDTH 390 0
DWIDTH 13 0
BBX 13 12 0 0
BITMAP
0008
0008
0008
0010
0cf0
3760
4100
c100
9900
a580
e880
7080
ENDCHAR
STARTCHAR uacute
ENCODING 250
SWIDTH 990 0
DWIDTH 33 0
BBX 33 1 0 5
BITMAP
ffffffff80
ENDCHAR
STARTCHAR ucircumflex
ENCODING 251
SWIDTH 510 0
DWIDTH 17 0
BBX 16 1 0 5
BITMAP
ffff
ENDCHAR
STARTCHAR udiaeresis
ENCODING 252
SWIDTH 0 0
DWIDTH 0 0
BBX 4 7 -5 -14
BITMAP
70
90
b0
60
20
60
40
ENDCHAR
STARTCHAR yacute
ENCODING 253
SWIDTH 0 0
DWIDTH 0 0
BBX 8 7 -9 -14
BITMAP
73
92
b2
76
24
2c
38
ENDCHAR
STARTCHAR thorn
ENCODING 254
SWIDTH 480 0
DWIDTH 16 0
BBX 14 13 1 0
BITMAP
01e0
0e18
17c4
2224
4644
46c4
8504
8588
8888
98d0
8020
40c0
3f00
ENDCHAR
STARTCHAR ydiaeresis
ENCODING 255
SWIDTH 0 0
DWIDTH 0 0
BBX 1 1 0 0
BITMAP
00
ENDCHAR
ENDFONT
